<svg width="30" height="30" viewBox="0 0 30 30" fill="none" xmlns="http://www.w3.org/2000/svg">
<path id="Vector" d="M15.0006 0L14.6529 0.258306C10.5891 3.29837 6.58967 5.2911 0.483019 6.30381L0 6.38073V6.86786C0 8.08568 0.540982 9.98932 1.4233 12.3224C2.29917 14.6619 3.5357 17.3731 4.96672 19.9626C6.4029 22.5521 8.01941 25.0198 9.71963 26.8657C11.4005 28.7181 13.1652 30 15.0006 30C16.8361 30 18.6007 28.7181 20.2945 26.8657C21.9819 25.0198 23.5984 22.5521 25.041 19.9626C26.4707 17.3731 27.7008 14.6619 28.5831 12.3224C29.459 9.98932 30 8.08568 30 6.86786V6.38073L29.5234 6.30381C23.4309 5.2911 19.4187 3.29837 15.3484 0.258306L15.0006 0ZM15.0006 1.42292C18.9356 4.3098 23.0123 6.30381 28.8086 7.34216C28.6862 8.31642 28.2289 9.99573 27.5012 11.925C27.2371 12.6172 26.9473 13.3479 26.6189 14.1043H17.0615V10.97L21.1833 11.9955L15.0006 4.81936L8.818 11.9955L12.9398 10.97V14.1043H3.38049C3.05848 13.3479 2.76287 12.6172 2.49882 11.925C1.77751 9.99573 1.31381 8.31642 1.19145 7.34216C6.98897 6.30381 11.0592 4.3098 15.0006 1.42292Z" fill="white"/>
</svg>
