<svg width="50" height="50" viewBox="0 0 50 50" fill="none" xmlns="http://www.w3.org/2000/svg">
<path d="M25.0011 0L24.4214 0.430509C17.6484 5.49728 10.9828 8.8185 0.805032 10.5064L0 10.6345V11.4464C0 13.4761 0.901636 16.6489 2.37216 20.5373C3.83195 24.4365 5.89283 28.9552 8.27787 33.271C10.6715 37.5868 13.3657 41.6996 16.1994 44.7762C19.0009 47.8635 21.9419 50 25.0011 50C28.0602 50 31.0012 47.8635 33.8242 44.7762C36.6365 41.6996 39.3306 37.5868 41.735 33.271C44.1179 28.9552 46.168 24.4365 47.6386 20.5373C49.0984 16.6489 50 13.4761 50 11.4464V10.6345L49.2057 10.5064C39.0516 8.8185 32.3644 5.49728 25.5807 0.430509L25.0011 0ZM25.0011 2.37154C31.5594 7.18299 38.3539 10.5064 48.0143 12.2369C47.8103 13.8607 47.0482 16.6595 45.8353 19.875C45.3952 21.0287 44.9122 22.2466 44.3648 23.5071H28.4359V18.2833L35.3055 19.9925L25.0011 8.03226L14.6967 19.9925L21.5663 18.2833V23.5071H5.63415C5.09746 22.2466 4.60478 21.0287 4.1647 19.875C2.96252 16.6595 2.18969 13.8607 1.98575 12.2369C11.6483 10.5064 18.432 7.18299 25.0011 2.37154Z" fill="white"/>
</svg>
