<svg width="30" height="21" viewBox="0 0 30 21" fill="none" xmlns="http://www.w3.org/2000/svg">
<path d="M2.08333 0H12.5C13.0525 0 13.5824 0.219493 13.9731 0.610194C14.3638 1.0009 14.5833 1.5308 14.5833 2.08333C14.5833 2.63587 14.3638 3.16577 13.9731 3.55647C13.5824 3.94717 13.0525 4.16667 12.5 4.16667H2.08333C1.5308 4.16667 1.0009 3.94717 0.610194 3.55647C0.219493 3.16577 0 2.63587 0 2.08333C0 1.5308 0.219493 1.0009 0.610194 0.610194C1.0009 0.219493 1.5308 0 2.08333 0ZM16.6667 16.6667H27.0833C27.6359 16.6667 28.1658 16.8862 28.5565 17.2769C28.9472 17.6676 29.1667 18.1975 29.1667 18.75C29.1667 19.3025 28.9472 19.8324 28.5565 20.2231C28.1658 20.6138 27.6359 20.8333 27.0833 20.8333H16.6667C16.1141 20.8333 15.5842 20.6138 15.1935 20.2231C14.8028 19.8324 14.5833 19.3025 14.5833 18.75C14.5833 18.1975 14.8028 17.6676 15.1935 17.2769C15.5842 16.8862 16.1141 16.6667 16.6667 16.6667ZM2.08333 8.33333H27.0833C27.6359 8.33333 28.1658 8.55283 28.5565 8.94353C28.9472 9.33423 29.1667 9.86413 29.1667 10.4167C29.1667 10.9692 28.9472 11.4991 28.5565 11.8898C28.1658 12.2805 27.6359 12.5 27.0833 12.5H2.08333C1.5308 12.5 1.0009 12.2805 0.610194 11.8898C0.219493 11.4991 0 10.9692 0 10.4167C0 9.86413 0.219493 9.33423 0.610194 8.94353C1.0009 8.55283 1.5308 8.33333 2.08333 8.33333Z" fill="#129346"/>
</svg>
