<svg width="64" height="53" viewBox="0 0 64 53" fill="none" xmlns="http://www.w3.org/2000/svg">
<g id="Top" filter="url(#filter0_d_5225_2103)">
<g id="Group 7">
<g id="Group">
<path id="Vector" d="M54.5895 44.1107L9.60007 44.3003C6.61916 44.3175 4.15516 41.8707 4.13793 38.8898L4.00009 5.65176C3.98286 2.67085 6.42962 0.20686 9.41053 0.189629L54.3999 9.04536e-05C57.3808 -0.0171403 59.8448 2.42962 59.8621 5.41053L59.9999 38.6486C60.0171 41.6467 57.5704 44.1107 54.5895 44.1107Z" fill="white"/>
<g id="Group_2">
<g id="Group_3">
<g id="Group_4">
<path id="Vector_2" d="M25.6427 38.3544C25.4015 38.3544 25.1775 38.2338 25.0569 38.0098C24.8846 37.6996 25.0224 37.3033 25.3326 37.131C26.263 36.6486 27.5381 35.7353 28.2618 34.1846C29.1923 32.203 28.9338 30.0492 28.5375 29.8769C28.4341 29.8252 28.055 30.032 27.8138 30.1526C27.2107 30.4627 26.3664 30.8935 25.3843 30.5661C24.4193 30.2387 23.9541 29.3944 23.7301 28.9809C22.2483 26.3101 21.7658 19.3317 23.2993 15.8511C23.8163 14.6966 24.5055 14.0074 25.367 13.8006C26.2458 13.5939 26.9695 13.9557 27.5553 14.2486C28.0378 14.4899 28.279 14.5932 28.4169 14.5071C29.0199 14.1452 29.0027 11.9225 28.1412 10.1649C27.4003 8.61418 26.1252 7.71819 25.1775 7.23573C24.8673 7.08066 24.7295 6.68435 24.9018 6.3742C25.0569 6.06404 25.4532 5.92619 25.7633 6.0985C26.8833 6.66711 28.3996 7.73542 29.2956 9.61357C30.1916 11.4745 30.6224 14.6794 29.0716 15.6271C28.2963 16.1095 27.5381 15.7305 26.9523 15.4203C26.5043 15.1963 26.0735 14.9723 25.66 15.0757C25.0913 15.2135 24.695 15.8683 24.471 16.3852C23.127 19.4178 23.5406 26.0172 24.8501 28.3606C25.0741 28.7569 25.3326 29.1876 25.7978 29.3427C26.2286 29.4978 26.6421 29.3083 27.2279 28.9981C27.7966 28.7052 28.4341 28.3778 29.1061 28.7052C30.5535 29.3944 30.4673 32.5132 29.4335 34.7359C28.5547 36.6313 27.0384 37.6996 25.9184 38.2855C25.8495 38.3372 25.7461 38.3544 25.6427 38.3544Z" fill="#3D3D3C"/>
</g>
<g id="Group_5">
<path id="Vector_3" d="M23.6102 17.0228L11.9623 17.0745C11.6004 17.0745 11.3075 16.7815 11.3075 16.4369C11.3075 16.0751 11.6004 15.7822 11.945 15.7822L23.593 15.7305C23.9548 15.7305 24.2478 16.0234 24.2478 16.368C24.265 16.7298 23.9721 17.0228 23.6102 17.0228Z" fill="#3D3D3C"/>
</g>
<g id="Group_6">
<path id="Vector_4" d="M23.6611 28.6712L12.0131 28.7229C11.6513 28.7229 11.3583 28.43 11.3583 28.0854C11.3583 27.7235 11.6513 27.4306 11.9959 27.4306L23.6438 27.3789C24.0057 27.3789 24.2986 27.6718 24.2986 28.0164C24.2986 28.3611 24.0229 28.6712 23.6611 28.6712Z" fill="#3D3D3C"/>
</g>
<g id="Group_7">
<path id="Vector_5" d="M39.2199 38.3031C39.1166 38.3031 39.0132 38.2858 38.927 38.2341C37.807 37.6655 36.2907 36.5972 35.3947 34.7191C34.3264 32.5135 34.223 29.3948 35.6704 28.6883C36.3424 28.3609 36.9799 28.6883 37.5486 28.964C38.1344 29.2569 38.5479 29.4465 38.9787 29.2914C39.4612 29.1191 39.7369 28.6022 39.9092 28.292C41.1842 25.9314 41.5461 19.3321 40.1849 16.3167C39.9436 15.7998 39.5473 15.145 38.9787 15.0244C38.6341 14.9382 38.4101 14.5936 38.4962 14.249C38.5824 13.9044 38.927 13.6804 39.2716 13.7665C40.1332 13.9733 40.8396 14.6453 41.3565 15.7998C42.9245 19.2631 42.4938 26.2416 41.0464 28.9296C40.8224 29.3431 40.3572 30.2046 39.4095 30.532C38.4273 30.8766 37.583 30.4459 36.9799 30.1357C36.7387 30.0151 36.3424 29.8256 36.2563 29.86C35.86 30.0496 35.6359 32.2034 36.5836 34.1677C37.3246 35.7185 38.5996 36.6145 39.5473 37.0969C39.8575 37.252 39.9953 37.6483 39.823 37.9584C39.6852 38.1652 39.4612 38.3031 39.2199 38.3031Z" fill="#3D3D3C"/>
</g>
<g id="Group_8">
<path id="Vector_6" d="M36.5329 14.387C36.2573 14.387 36.016 14.2147 35.9126 13.939C34.517 9.78644 37.7391 6.56429 38.7902 6.03014C39.1003 5.85783 39.4966 5.99568 39.6689 6.30584C39.8412 6.61599 39.7034 7.01229 39.3933 7.18459C38.928 7.42582 35.9643 9.9932 37.1533 13.5255C37.2739 13.8701 37.0843 14.232 36.7397 14.3526C36.6708 14.3698 36.6019 14.387 36.5329 14.387Z" fill="#3D3D3C"/>
</g>
<g id="Group_9">
<path id="Vector_7" d="M52.7128 16.9036L41.0648 16.9553C40.703 16.9553 40.41 16.6624 40.41 16.3178C40.41 15.9559 40.703 15.663 41.0476 15.663L52.6955 15.6113C53.0574 15.6113 53.3503 15.9042 53.3503 16.2489C53.3675 16.6107 53.0746 16.9036 52.7128 16.9036Z" fill="#3D3D3C"/>
</g>
<g id="Group_10">
<path id="Vector_8" d="M52.7638 28.5501L41.1158 28.6018C40.754 28.6018 40.4611 28.3089 40.4611 27.9643C40.4611 27.6024 40.754 27.3095 41.0986 27.3095L52.7466 27.2578C53.1084 27.2578 53.4013 27.5507 53.4013 27.8954C53.4186 28.2572 53.1256 28.5501 52.7638 28.5501Z" fill="#3D3D3C"/>
</g>
</g>
</g>
</g>
</g>
</g>
<defs>
<filter id="filter0_d_5225_2103" x="0" y="0" width="64" height="52.3008" filterUnits="userSpaceOnUse" color-interpolation-filters="sRGB">
<feFlood flood-opacity="0" result="BackgroundImageFix"/>
<feColorMatrix in="SourceAlpha" type="matrix" values="0 0 0 0 0 0 0 0 0 0 0 0 0 0 0 0 0 0 127 0" result="hardAlpha"/>
<feOffset dy="4"/>
<feGaussianBlur stdDeviation="2"/>
<feComposite in2="hardAlpha" operator="out"/>
<feColorMatrix type="matrix" values="0 0 0 0 0 0 0 0 0 0 0 0 0 0 0 0 0 0 0.25 0"/>
<feBlend mode="normal" in2="BackgroundImageFix" result="effect1_dropShadow_5225_2103"/>
<feBlend mode="normal" in="SourceGraphic" in2="effect1_dropShadow_5225_2103" result="shape"/>
</filter>
</defs>
</svg>
