<svg width="19" height="15" viewBox="0 0 19 15" fill="none" xmlns="http://www.w3.org/2000/svg">
<path d="M2 6.16667H17M5.33333 10.3333H5.34167M8.66667 10.3333H10.3333M2 4.5C2 3.83696 2.26339 3.20107 2.73223 2.73223C3.20107 2.26339 3.83696 2 4.5 2H14.5C15.163 2 15.7989 2.26339 16.2678 2.73223C16.7366 3.20107 17 3.83696 17 4.5V11.1667C17 11.8297 16.7366 12.4656 16.2678 12.9344C15.7989 13.4033 15.163 13.6667 14.5 13.6667H4.5C3.83696 13.6667 3.20107 13.4033 2.73223 12.9344C2.26339 12.4656 2 11.8297 2 11.1667V4.5Z" stroke="#7791CD" strokeWidth="2.5" strokeLinecap="round" strokeLinejoin="round"/>
</svg>
