<svg width="152" height="30" viewBox="0 0 152 30" fill="none" xmlns="http://www.w3.org/2000/svg">
<g id="Vector" filter="url(#filter0_d_5225_2127)">
<path d="M49.1765 15.7691H59.5755V12.8273H53.0761V4.74126H49.1765V15.7691Z" fill="white"/>
<path d="M66.7448 16.0156C68.8067 16.0156 70.779 15.5381 71.8248 14.845L70.8537 13.12C70.0618 13.582 68.5228 13.9209 66.9988 13.9209C65.5495 13.9209 64.2048 13.5512 63.8014 12.6271H71.8697C71.9444 12.3653 71.9743 12.0264 71.9743 11.7954C71.9743 9.23866 69.6584 7.55983 66.1472 7.55983C62.5763 7.55983 60.0811 9.30027 60.0811 11.78C60.0811 14.3675 62.7705 16.0156 66.7448 16.0156ZM63.7417 11.0715C63.8761 10.1782 64.8473 9.5467 66.1173 9.5467C67.3574 9.5467 68.3734 10.1628 68.4183 11.0715H63.7417Z" fill="white"/>
<path d="M75.9141 15.7691H80.4412L84.6546 7.82167H80.9044L78.215 13.5358H78.2001L75.5107 7.82167H71.7604L75.9141 15.7691Z" fill="white"/>
<path d="M90.9951 16.0156C93.057 16.0156 95.0292 15.5381 96.0751 14.845L95.1039 13.12C94.312 13.582 92.7731 13.9209 91.2491 13.9209C89.7998 13.9209 88.4551 13.5512 88.0517 12.6271H96.1199C96.1946 12.3653 96.2245 12.0264 96.2245 11.7954C96.2245 9.23866 93.9086 7.55983 90.3974 7.55983C86.8265 7.55983 84.3313 9.30027 84.3313 11.78C84.3313 14.3675 87.0207 16.0156 90.9951 16.0156ZM87.9919 11.0715C88.1264 10.1782 89.0975 9.5467 90.3675 9.5467C91.6077 9.5467 92.6237 10.1628 92.6685 11.0715H87.9919Z" fill="white"/>
<path d="M103.928 7.55983C102.539 7.55983 101.284 8.36074 100.716 9.65451H100.701L100.223 7.82167H97.2795V15.7691H100.821V12.2267C100.821 10.7173 101.418 9.76233 102.419 9.76233C103.151 9.76233 103.659 10.517 103.719 11.703L106.946 11.0561C106.827 8.93062 105.647 7.55983 103.928 7.55983Z" fill="white"/>
<path d="M107.832 15.7691H111.732V12.3961H116.423C119.471 12.3961 121.16 11.0561 121.175 8.62258C121.175 6.12744 119.486 4.74126 116.453 4.74126H107.832V15.7691ZM111.732 10.132V7.00536H115.153C116.513 7.00536 117.26 7.55983 117.26 8.56097C117.26 9.5775 116.513 10.132 115.153 10.132H111.732Z" fill="white"/>
<path d="M125.407 16.0156C127.529 16.0156 129.217 15.2609 129.979 14.0441H129.994L130.472 15.7691H133.535V10.6248C133.535 8.66878 131.294 7.55983 127.903 7.55983C125.467 7.55983 123.047 8.23752 121.553 9.28486L122.479 11.1793C123.943 10.209 126.035 9.59291 127.903 9.59291C129.202 9.59291 130.054 9.88555 130.054 10.2706C130.054 10.4246 129.86 10.5478 129.531 10.5786L126.588 10.8559C123.39 11.1639 121.523 12.2421 121.523 13.8285C121.523 15.2147 122.957 16.0156 125.407 16.0156ZM126.662 13.8593C125.617 13.8593 125.064 13.6282 125.064 13.2278C125.064 12.8119 125.676 12.5809 126.827 12.4885L129.994 12.1959V12.2267C129.994 13.197 128.665 13.8593 126.662 13.8593Z" fill="white"/>
<path d="M139.026 19.25C143.299 19.25 146.093 17.2785 146.093 14.2597V7.82167H142.567V11.1485C142.567 12.6579 141.611 13.6282 140.176 13.6282C138.936 13.6282 138.114 12.7349 138.114 11.3795V7.82167H134.573L134.558 11.7646C134.558 14.0903 136.202 15.7691 138.742 15.7691C140.58 15.7691 142.074 14.8758 142.552 13.505H142.567V14.0903C142.567 15.6459 141.073 16.6625 138.787 16.6625C137.382 16.6625 135.754 16.1388 134.618 15.4919L133.527 17.8484C134.738 18.6185 136.934 19.25 139.026 19.25Z" fill="white"/>
<path d="M145.744 1.83333L148 9.15446L140.721 7.50799L145.744 1.83333Z" fill="white"/>
<path d="M18.3748 0.503594C13.8886 1.90529 10.6345 6.0746 10.6345 11C10.6345 15.9254 13.8886 20.0947 18.3748 21.4964C17.3276 21.8236 16.2133 22 15.0575 22C8.95062 22 4 17.0751 4 11C4 4.92486 8.95062 0 15.0575 0C16.2133 0 17.3276 0.176414 18.3748 0.503594Z" fill="white"/>
<path d="M34.5188 11C34.5188 17.0751 29.5682 22 23.4613 22C17.3544 22 12.4037 17.0751 12.4037 11C12.4037 4.92487 17.3544 0 23.4613 0C29.5682 0 34.5188 4.92487 34.5188 11Z" fill="white"/>
<path d="M36.0669 11C36.0669 6.0746 32.8127 1.90526 28.3266 0.503594C29.3738 0.176387 30.4881 0 31.6438 0C35.4662 0 38.8356 1.92938 40.8216 4.86259C39.6346 6.61568 38.9418 8.72736 38.9418 11C38.9418 13.2726 39.6346 15.3843 40.8216 17.1374C38.8356 20.0706 35.4662 22 31.6438 22C30.4881 22 29.3738 21.8236 28.3266 21.4964C32.8127 20.0947 36.0669 15.9254 36.0669 11Z" fill="white"/>
<path d="M42.5908 4.86259C41.4038 6.61568 40.711 8.72736 40.711 11C40.711 13.2726 41.4038 15.3843 42.5908 17.1374C43.7778 15.3843 44.4706 13.2726 44.4706 11C44.4706 8.72736 43.7778 6.61568 42.5908 4.86259Z" fill="white"/>
</g>
<defs>
<filter id="filter0_d_5225_2127" x="0" y="0" width="152" height="30" filterUnits="userSpaceOnUse" color-interpolation-filters="sRGB">
<feFlood flood-opacity="0" result="BackgroundImageFix"/>
<feColorMatrix in="SourceAlpha" type="matrix" values="0 0 0 0 0 0 0 0 0 0 0 0 0 0 0 0 0 0 127 0" result="hardAlpha"/>
<feOffset dy="4"/>
<feGaussianBlur stdDeviation="2"/>
<feComposite in2="hardAlpha" operator="out"/>
<feColorMatrix type="matrix" values="0 0 0 0 0 0 0 0 0 0 0 0 0 0 0 0 0 0 0.25 0"/>
<feBlend mode="normal" in2="BackgroundImageFix" result="effect1_dropShadow_5225_2127"/>
<feBlend mode="normal" in="SourceGraphic" in2="effect1_dropShadow_5225_2127" result="shape"/>
</filter>
</defs>
</svg>
