<svg width="42" height="42" viewBox="0 0 42 42" fill="none" xmlns="http://www.w3.org/2000/svg">
<path d="M37.5 20.8334C37.5 25.2537 35.7441 29.4929 32.6184 32.6185C29.4928 35.7441 25.2536 37.5001 20.8333 37.5001C16.4131 37.5001 12.1738 35.7441 9.04822 32.6185C5.92261 29.4929 4.16667 25.2537 4.16667 20.8334C4.16667 16.4132 5.92261 12.1739 9.04822 9.04831C12.1738 5.92271 16.4131 4.16676 20.8333 4.16676C22.4167 4.16676 23.9583 4.39593 25.4167 4.81259L28.6875 1.54176C26.1965 0.515855 23.5273 -0.00805514 20.8333 9.36153e-05C18.0975 9.36153e-05 15.3884 0.538964 12.8608 1.58594C10.3331 2.63291 8.0365 4.16748 6.10194 6.10204C2.19493 10.009 0 15.3081 0 20.8334C0 26.3588 2.19493 31.6578 6.10194 35.5648C8.0365 37.4994 10.3331 39.0339 12.8608 40.0809C15.3884 41.1279 18.0975 41.6668 20.8333 41.6668C26.3587 41.6668 31.6577 39.4718 35.5647 35.5648C39.4717 31.6578 41.6667 26.3588 41.6667 20.8334M12.3125 16.8334L9.375 19.7918L18.75 29.1668L39.5833 8.33343L36.6458 5.37509L18.75 23.2709L12.3125 16.8334Z" fill="white"/>
</svg>
