<svg width="20" height="20" viewBox="0 0 20 20" fill="none" xmlns="http://www.w3.org/2000/svg">
<g id="ri:contacts-fill">
<path id="Vector" d="M1.66669 18.333C1.66669 16.5649 2.36907 14.8692 3.61931 13.619C4.86955 12.3687 6.56524 11.6663 8.33335 11.6663C10.1015 11.6663 11.7972 12.3687 13.0474 13.619C14.2976 14.8692 15 16.5649 15 18.333H1.66669ZM8.33335 10.833C5.57085 10.833 3.33335 8.59551 3.33335 5.83301C3.33335 3.07051 5.57085 0.833008 8.33335 0.833008C11.0959 0.833008 13.3334 3.07051 13.3334 5.83301C13.3334 8.59551 11.0959 10.833 8.33335 10.833ZM16.6667 14.1663H20V15.833H16.6667V14.1663ZM14.1667 9.99967H20V11.6663H14.1667V9.99967ZM15.8334 5.83301H20V7.49967H15.8334V5.83301Z" fill="#7791CD"/>
</g>
</svg>
