<svg width="20" height="20" viewBox="0 0 20 20" fill="none" xmlns="http://www.w3.org/2000/svg">
<path d="M2.22222 20C1.61111 20 1.08778 19.7826 0.652222 19.3478C0.217407 18.9122 0 18.3889 0 17.7778V2.22222C0 1.61111 0.217407 1.08778 0.652222 0.652222C1.08778 0.217407 1.61111 0 2.22222 0H8.88889V20H2.22222ZM11.1111 20V10H20V17.7778C20 18.3889 19.7826 18.9122 19.3478 19.3478C18.9122 19.7826 18.3889 20 17.7778 20H11.1111ZM11.1111 7.77778V0H17.7778C18.3889 0 18.9122 0.217407 19.3478 0.652222C19.7826 1.08778 20 1.61111 20 2.22222V7.77778H11.1111Z" fill="white"/>
</svg>
