<svg width="19" height="25" viewBox="0 0 19 25" fill="none" xmlns="http://www.w3.org/2000/svg">
<g id="&#240;&#159;&#166;&#134; emoji &#34;lock&#34;" opacity="0.8">
<path id="Vector" d="M9.49995 0C5.46391 0 2.19226 3.27165 2.19226 7.30769V14.6154H5.11534V7.30769C5.11534 4.88665 7.07818 2.92308 9.49995 2.92308C11.9217 2.92308 13.8846 4.88665 13.8846 7.30769V14.6154H16.8076V7.30769C16.8076 3.27165 13.536 0 9.49995 0Z" fill="#AAB8C2"/>
<path id="Vector_2" d="M19 21.1923C19 22.8066 17.6912 24.1154 16.0769 24.1154H2.92308C1.30881 24.1154 0 22.8066 0 21.1923V12.4231C0 10.8088 1.30881 9.5 2.92308 9.5H16.0769C17.6912 9.5 19 10.8088 19 12.4231V21.1923Z" fill="#FFAC33"/>
</g>
</svg>
