<svg width="21" height="21" viewBox="0 0 21 21" fill="none" xmlns="http://www.w3.org/2000/svg">
<g id="Help">
<path id="Vector" d="M14.8448 2.71875H6.51146C4.01145 2.71875 2.34479 4.38542 2.34479 6.88542V11.8854C2.34479 14.3854 4.01145 16.0521 6.51146 16.0521V17.8271C6.51146 18.4938 7.25312 18.8938 7.80312 18.5188L11.5115 16.0521H14.8448C17.3448 16.0521 19.0115 14.3854 19.0115 11.8854V6.88542C19.0115 4.38542 17.3448 2.71875 14.8448 2.71875ZM10.6781 12.8604C10.3281 12.8604 10.0531 12.5771 10.0531 12.2354C10.0531 11.8938 10.3281 11.6104 10.6781 11.6104C11.0281 11.6104 11.3031 11.8938 11.3031 12.2354C11.3031 12.5771 11.0281 12.8604 10.6781 12.8604ZM11.7281 9.40209C11.4031 9.61876 11.3031 9.76043 11.3031 9.99376V10.1688C11.3031 10.5104 11.0198 10.7938 10.6781 10.7938C10.3365 10.7938 10.0531 10.5104 10.0531 10.1688V9.99376C10.0531 9.02708 10.7615 8.55208 11.0281 8.36875C11.3365 8.16042 11.4365 8.01875 11.4365 7.80208C11.4365 7.38542 11.0948 7.04375 10.6781 7.04375C10.2615 7.04375 9.91979 7.38542 9.91979 7.80208C9.91979 8.14375 9.63646 8.42708 9.29479 8.42708C8.95312 8.42708 8.66979 8.14375 8.66979 7.80208C8.66979 6.69375 9.56979 5.79375 10.6781 5.79375C11.7865 5.79375 12.6865 6.69375 12.6865 7.80208C12.6865 8.75208 11.9865 9.22709 11.7281 9.40209Z" fill="#7791CD"/>
</g>
</svg>
