<svg width="30" height="30" viewBox="0 0 30 30" fill="none" xmlns="http://www.w3.org/2000/svg">
<g id="&#240;&#159;&#166;&#134; icon &#34;eye&#34;">
<g id="Group">
<path id="Vector" d="M14.9999 16.875C16.0354 16.875 16.8749 16.0355 16.8749 15C16.8749 13.9645 16.0354 13.125 14.9999 13.125C13.9643 13.125 13.1249 13.9645 13.1249 15C13.1249 16.0355 13.9643 16.875 14.9999 16.875Z" fill="white"/>
<path id="Vector_2" d="M27.3373 14.3764C26.5373 12.9889 22.1373 6.02643 14.6623 6.25143C7.74984 6.42643 3.74984 12.5014 2.66234 14.3764C2.55263 14.5665 2.49487 14.782 2.49487 15.0014C2.49487 15.2208 2.55263 15.4364 2.66234 15.6264C3.44984 16.9889 7.66234 23.7514 15.0248 23.7514H15.3373C22.2498 23.5764 26.2623 17.5014 27.3373 15.6264C27.4471 15.4364 27.5048 15.2208 27.5048 15.0014C27.5048 14.782 27.4471 14.5665 27.3373 14.3764ZM14.9998 19.3764C14.1345 19.3764 13.2887 19.1198 12.5692 18.6391C11.8498 18.1584 11.289 17.4751 10.9579 16.6757C10.6267 15.8762 10.5401 14.9966 10.7089 14.1479C10.8777 13.2992 11.2944 12.5197 11.9062 11.9078C12.5181 11.296 13.2977 10.8793 14.1463 10.7105C14.995 10.5417 15.8747 10.6283 16.6741 10.9595C17.4735 11.2906 18.1568 11.8513 18.6375 12.5708C19.1183 13.2903 19.3748 14.1361 19.3748 15.0014C19.3748 16.1617 18.9139 17.2745 18.0934 18.095C17.273 18.9155 16.1602 19.3764 14.9998 19.3764Z" fill="white"/>
</g>
</g>
</svg>
