<svg width="156" height="25" viewBox="0 0 156 25" fill="none" xmlns="http://www.w3.org/2000/svg">
<path d="M49.0516 17.2106H60.3057V14.0867H53.2719V5.50004H49.0516V17.2106Z" fill="white"/>
<path d="M68.0644 17.4723C70.2958 17.4723 72.4302 16.9653 73.562 16.2293L72.511 14.3974C71.654 14.8881 69.9886 15.2479 68.3393 15.2479C66.7708 15.2479 65.3156 14.8554 64.879 13.8741H73.6106C73.6914 13.596 73.7237 13.2362 73.7237 12.9909C73.7237 10.2758 71.2175 8.4931 67.4176 8.4931C63.5531 8.4931 60.8528 10.3413 60.8528 12.9745C60.8528 15.7222 63.7633 17.4723 68.0644 17.4723ZM64.8143 12.2222C64.9598 11.2735 66.0109 10.603 67.3853 10.603C68.7273 10.603 69.8269 11.2572 69.8754 12.2222H64.8143Z" fill="white"/>
<path d="M77.9875 17.2106H82.8868L87.4467 8.77114H83.3881L80.4776 14.839H80.4614L77.5509 8.77114H73.4923L77.9875 17.2106Z" fill="white"/>
<path d="M94.3084 17.4723C96.5398 17.4723 98.6741 16.9653 99.806 16.2293L98.755 14.3974C97.898 14.8881 96.2325 15.2479 94.5832 15.2479C93.0148 15.2479 91.5595 14.8554 91.123 13.8741H99.8545C99.9354 13.596 99.9677 13.2362 99.9677 12.9909C99.9677 10.2758 97.4614 8.4931 93.6616 8.4931C89.7971 8.4931 87.0967 10.3413 87.0967 12.9745C87.0967 15.7222 90.0073 17.4723 94.3084 17.4723ZM91.0583 12.2222C91.2038 11.2735 92.2548 10.603 93.6292 10.603C94.9713 10.603 96.0708 11.2572 96.1194 12.2222H91.0583Z" fill="white"/>
<path d="M108.305 8.4931C106.801 8.4931 105.443 9.34359 104.828 10.7174H104.812L104.295 8.77114H101.109V17.2106H104.942V13.4488C104.942 11.846 105.588 10.8319 106.672 10.8319C107.464 10.8319 108.014 11.6334 108.079 12.8927L111.571 12.2058C111.442 9.94874 110.164 8.4931 108.305 8.4931Z" fill="white"/>
<path d="M112.53 17.2106H116.75V13.6287H121.827C125.126 13.6287 126.953 12.2058 126.969 9.62163C126.969 6.97204 125.142 5.50004 121.86 5.50004H112.53V17.2106ZM116.75 11.2245V7.9043H120.453C121.924 7.9043 122.733 8.4931 122.733 9.55621C122.733 10.6357 121.924 11.2245 120.453 11.2245H116.75Z" fill="white"/>
<path d="M131.55 17.4723C133.846 17.4723 135.673 16.6709 136.498 15.3788H136.514L137.031 17.2106H140.346V11.7478C140.346 9.6707 137.921 8.4931 134.25 8.4931C131.615 8.4931 128.995 9.21274 127.378 10.3249L128.381 12.3366C129.965 11.3062 132.229 10.652 134.25 10.652C135.657 10.652 136.579 10.9628 136.579 11.3717C136.579 11.5352 136.368 11.6661 136.013 11.6988L132.827 11.9932C129.367 12.3203 127.346 13.4652 127.346 15.1498C127.346 16.6218 128.898 17.4723 131.55 17.4723ZM132.908 15.1825C131.776 15.1825 131.178 14.9372 131.178 14.5119C131.178 14.0703 131.841 13.825 133.086 13.7269L136.514 13.4161V13.4488C136.514 14.4792 135.075 15.1825 132.908 15.1825Z" fill="white"/>
<path d="M146.288 20.9069C150.912 20.9069 153.936 18.8134 153.936 15.6077V8.77114H150.12V12.3039C150.12 13.9068 149.085 14.9372 147.533 14.9372C146.191 14.9372 145.302 13.9886 145.302 12.5493V8.77114H141.469L141.453 12.9582C141.453 15.4278 143.232 17.2106 145.981 17.2106C147.97 17.2106 149.587 16.262 150.104 14.8063H150.12V15.4278C150.12 17.0797 148.503 18.1592 146.029 18.1592C144.509 18.1592 142.747 17.6031 141.518 16.9162L140.338 19.4186C141.647 20.2364 144.024 20.9069 146.288 20.9069Z" fill="white"/>
<path d="M153.558 2.41211L156 10.1864L148.123 8.43805L153.558 2.41211Z" fill="white"/>
<path d="M15.709 0.552206C10.8064 2.08921 7.25029 6.66099 7.25029 12.0618C7.25029 17.4627 10.8064 22.0345 15.709 23.5715C14.5646 23.9302 13.3468 24.1237 12.0838 24.1237C5.4101 24.1237 0 18.7234 0 12.0618C0 5.40026 5.4101 0 12.0838 0C13.3468 0 14.5646 0.193443 15.709 0.552206Z" fill="white"/>
<path d="M33.3513 12.0618C33.3513 18.7234 27.9412 24.1237 21.2675 24.1237C14.5938 24.1237 9.1837 18.7234 9.1837 12.0618C9.1837 5.40027 14.5938 0 21.2675 0C27.9412 0 33.3513 5.40027 33.3513 12.0618Z" fill="white"/>
<path d="M35.043 12.0618C35.043 6.66099 31.4869 2.08918 26.5844 0.552206C27.7288 0.193413 28.9465 0 30.2095 0C34.3867 0 38.0688 2.11562 40.2391 5.33198C38.942 7.2543 38.1848 9.56982 38.1848 12.0618C38.1848 14.5539 38.942 16.8694 40.2391 18.7917C38.0688 22.0081 34.3867 24.1237 30.2095 24.1237C28.9465 24.1237 27.7288 23.9303 26.5844 23.5715C31.4869 22.0345 35.043 17.4627 35.043 12.0618Z" fill="white"/>
<path d="M42.1725 5.33198C40.8754 7.2543 40.1183 9.56981 40.1183 12.0618C40.1183 14.5539 40.8754 16.8694 42.1725 18.7917C43.4696 16.8694 44.2267 14.5539 44.2267 12.0618C44.2267 9.56981 43.4696 7.2543 42.1725 5.33198Z" fill="white"/>
</svg>
