<svg width="21" height="21" viewBox="0 0 21 21" fill="none" xmlns="http://www.w3.org/2000/svg">
<g id="Logout">
<path id="Vector" d="M7.24331 10.212C7.24331 9.87031 7.52665 9.58698 7.86831 9.58698H12.435V2.53698C12.4267 2.13698 12.11 1.82031 11.71 1.82031C6.80165 1.82031 3.37665 5.24531 3.37665 10.1536C3.37665 15.062 6.80165 18.487 11.71 18.487C12.1017 18.487 12.4267 18.1703 12.4267 17.7703V10.8286H7.86831C7.51831 10.837 7.24331 10.5536 7.24331 10.212Z" fill="#7791CD"/>
<path id="Vector_2" d="M17.7961 9.77113L15.4294 7.39609C15.1878 7.15443 14.7878 7.15443 14.5461 7.39609C14.3044 7.63776 14.3044 8.03776 14.5461 8.27943L15.8461 9.57946H12.4294V10.8295H15.8378L14.5378 12.1295C14.2961 12.3711 14.2961 12.7711 14.5378 13.0128C14.6628 13.1378 14.8211 13.1961 14.9794 13.1961C15.1378 13.1961 15.2961 13.1378 15.4211 13.0128L17.7878 10.6378C18.0378 10.4045 18.0378 10.0128 17.7961 9.77113Z" fill="#7791CD"/>
</g>
</svg>
