<svg width="20" height="20" viewBox="0 0 20 20" fill="none" xmlns="http://www.w3.org/2000/svg">
<g id="typcn:messages" clip-path="url(#clip0_5207_1453)">
<path id="Vector" d="M17.5 5.83301H15C15 4.45801 13.875 3.33301 12.5 3.33301H2.5C1.125 3.33301 0 4.45801 0 5.83301V11.6663C0 13.0413 1.125 14.1663 2.5 14.1663V16.6663L5 14.1663C5 15.5413 6.125 16.6663 7.5 16.6663H14.1667L16.6667 19.1663V16.6663H17.5C18.875 16.6663 20 15.5413 20 14.1663V8.33301C20 6.95801 18.875 5.83301 17.5 5.83301ZM2.5 12.4997C2.04833 12.4997 1.66667 12.118 1.66667 11.6663V5.83301C1.66667 5.38134 2.04833 4.99967 2.5 4.99967H12.5C12.9517 4.99967 13.3333 5.38134 13.3333 5.83301V6.66634H7.91667C7.36427 6.66678 6.83462 6.88642 6.44402 7.27702C6.05341 7.66763 5.83377 8.19728 5.83333 8.74967V12.4997H2.5ZM18.3333 14.1663C18.3333 14.618 17.9517 14.9997 17.5 14.9997H7.5C7.04833 14.9997 6.66667 14.618 6.66667 14.1663V8.74967C6.66667 8.06051 7.2275 7.49967 7.91667 7.49967H17.5C17.9517 7.49967 18.3333 7.88134 18.3333 8.33301V14.1663Z" fill="#7791CD"/>
</g>
<defs>
<clipPath id="clip0_5207_1453">
<rect width="20" height="20" fill="white"/>
</clipPath>
</defs>
</svg>
