<svg width="60" height="32" viewBox="0 0 60 32" fill="none" xmlns="http://www.w3.org/2000/svg">
<g id="Vector">
<path d="M21.1405 0.732501C14.6008 2.77133 9.85706 8.83579 9.85706 16C9.85706 23.1642 14.6008 29.2287 21.1405 31.2675C19.6139 31.7434 17.9895 32 16.3047 32C7.40235 32 0.185547 24.8366 0.185547 16C0.185547 7.16344 7.40235 0 16.3047 0C17.9895 0 19.6139 0.256602 21.1405 0.732501Z" fill="#0051FF"/>
<path d="M44.6745 16C44.6745 24.8366 37.4577 32 28.5553 32C19.6529 32 12.4361 24.8366 12.4361 16C12.4361 7.16345 19.6529 0 28.5553 0C37.4577 0 44.6745 7.16345 44.6745 16Z" fill="#082E88"/>
<path d="M46.9312 16C46.9312 8.83579 42.1875 2.77129 35.6478 0.732501C37.1743 0.256563 38.7988 0 40.4835 0C46.0556 0 50.9674 2.80637 53.8625 7.07286C52.1322 9.62282 51.1222 12.6943 51.1222 16C51.1222 19.3057 52.1322 22.3772 53.8625 24.9272C50.9674 29.1937 46.0556 32 40.4835 32C38.7988 32 37.1743 31.7435 35.6478 31.2675C42.1875 29.2287 46.9312 23.1642 46.9312 16Z" fill="#0051FF"/>
<path d="M56.4415 7.07286C54.7112 9.62282 53.7013 12.6943 53.7013 16C53.7013 19.3057 54.7112 22.3772 56.4415 24.9272C58.1719 22.3772 59.1818 19.3057 59.1818 16C59.1818 12.6943 58.1719 9.62282 56.4415 7.07286Z" fill="#082E88"/>
</g>
</svg>
