<svg width="28" height="23" viewBox="0 0 28 23" fill="none" xmlns="http://www.w3.org/2000/svg">
<path d="M22.2074 6.9895H18.7909V4.89274C18.7909 3.78055 18.2509 2.71391 17.2898 1.92747C16.3288 1.14103 15.0253 0.699219 13.6661 0.699219C12.3069 0.699219 11.0034 1.14103 10.0423 1.92747C9.08122 2.71391 8.54129 3.78055 8.54129 4.89274V6.9895H5.12477C4.67171 6.9895 4.2372 7.13677 3.91684 7.39892C3.59648 7.66106 3.4165 8.01661 3.4165 8.38734V18.1722C3.4165 18.543 3.59648 18.8985 3.91684 19.1606C4.2372 19.4228 4.67171 19.5701 5.12477 19.5701H22.2074C22.6604 19.5701 23.0949 19.4228 23.4153 19.1606C23.7357 18.8985 23.9156 18.543 23.9156 18.1722V8.38734C23.9156 8.01661 23.7357 7.66106 23.4153 7.39892C23.0949 7.13677 22.6604 6.9895 22.2074 6.9895ZM10.2496 4.89274C10.2496 4.15128 10.6095 3.44019 11.2502 2.91589C11.891 2.3916 12.76 2.09706 13.6661 2.09706C14.5722 2.09706 15.4412 2.3916 16.0819 2.91589C16.7226 3.44019 17.0826 4.15128 17.0826 4.89274V6.9895H10.2496V4.89274Z" fill="black"/>
</svg>
