<svg width="20" height="20" viewBox="0 0 20 20" fill="none" xmlns="http://www.w3.org/2000/svg">
<g id="mdi:file-report">
<path id="Vector" d="M10.8333 7.50033H15.4166L10.8333 2.91699V7.50033ZM4.99998 1.66699H11.6666L16.6666 6.66699V16.667C16.6666 17.109 16.4911 17.5329 16.1785 17.8455C15.8659 18.1581 15.442 18.3337 15 18.3337H4.99998C4.55795 18.3337 4.13403 18.1581 3.82147 17.8455C3.50891 17.5329 3.33331 17.109 3.33331 16.667V3.33366C3.33331 2.40866 4.07498 1.66699 4.99998 1.66699ZM5.83331 16.667H7.49998V11.667H5.83331V16.667ZM9.16665 16.667H10.8333V10.0003H9.16665V16.667ZM12.5 16.667H14.1666V13.3337H12.5V16.667Z" fill="#7791CD"/>
</g>
</svg>
