<svg width="64" height="53" viewBox="0 0 64 53" fill="none" xmlns="http://www.w3.org/2000/svg">
<g id="Top" filter="url(#filter0_d_6167_3808)">
<g id="Group 7">
<g id="Group">
<path id="Vector" d="M54.5895 44.1107L9.60007 44.3003C6.61916 44.3175 4.15516 41.8707 4.13793 38.8898L4.00009 5.65176C3.98286 2.67085 6.42962 0.20686 9.41053 0.189629L54.3999 9.04536e-05C57.3808 -0.0171403 59.8448 2.42962 59.8621 5.41053L59.9999 38.6486C60.0171 41.6467 57.5704 44.1107 54.5895 44.1107Z" fill="white"/>
<g id="Group_2">
<g id="Group_3">
<g id="Group_4">
<path id="Vector_2" d="M25.6429 38.3544C25.4017 38.3544 25.1777 38.2338 25.0571 38.0098C24.8848 37.6996 25.0226 37.3033 25.3328 37.131C26.2632 36.6486 27.5383 35.7353 28.262 34.1846C29.1924 32.203 28.934 30.0492 28.5377 29.8769C28.4343 29.8252 28.0552 30.032 27.814 30.1526C27.2109 30.4627 26.3666 30.8935 25.3844 30.5661C24.4195 30.2387 23.9543 29.3944 23.7303 28.9809C22.2485 26.3101 21.766 19.3317 23.2995 15.8511C23.8164 14.6966 24.5057 14.0074 25.3672 13.8006C26.246 13.5939 26.9697 13.9557 27.5555 14.2486C28.038 14.4899 28.2792 14.5932 28.4171 14.5071C29.0201 14.1452 29.0029 11.9225 28.1414 10.1649C27.4004 8.61418 26.1254 7.71819 25.1777 7.23573C24.8675 7.08066 24.7297 6.68435 24.902 6.3742C25.0571 6.06404 25.4534 5.92619 25.7635 6.0985C26.8835 6.66711 28.3998 7.73542 29.2958 9.61357C30.1918 11.4745 30.6226 14.6794 29.0718 15.6271C28.2964 16.1095 27.5383 15.7305 26.9524 15.4203C26.5044 15.1963 26.0737 14.9723 25.6601 15.0757C25.0915 15.2135 24.6952 15.8683 24.4712 16.3852C23.1272 19.4178 23.5408 26.0172 24.8503 28.3606C25.0743 28.7569 25.3328 29.1876 25.798 29.3427C26.2288 29.4978 26.6423 29.3083 27.2281 28.9981C27.7967 28.7052 28.4343 28.3778 29.1063 28.7052C30.5537 29.3944 30.4675 32.5132 29.4337 34.7359C28.5549 36.6313 27.0386 37.6996 25.9186 38.2855C25.8497 38.3372 25.7463 38.3544 25.6429 38.3544Z" fill="#3D3D3C"/>
</g>
<g id="Group_5">
<path id="Vector_3" d="M23.6103 17.0228L11.9624 17.0745C11.6005 17.0745 11.3076 16.7815 11.3076 16.4369C11.3076 16.0751 11.6005 15.7822 11.9452 15.7822L23.5931 15.7305C23.955 15.7305 24.2479 16.0234 24.2479 16.368C24.2651 16.7298 23.9722 17.0228 23.6103 17.0228Z" fill="#3D3D3C"/>
</g>
<g id="Group_6">
<path id="Vector_4" d="M23.6611 28.6712L12.0132 28.7229C11.6513 28.7229 11.3584 28.43 11.3584 28.0854C11.3584 27.7235 11.6513 27.4306 11.9959 27.4306L23.6439 27.3789C24.0057 27.3789 24.2987 27.6718 24.2987 28.0164C24.2987 28.3611 24.023 28.6712 23.6611 28.6712Z" fill="#3D3D3C"/>
</g>
<g id="Group_7">
<path id="Vector_5" d="M39.22 38.3031C39.1166 38.3031 39.0132 38.2858 38.9271 38.2341C37.8071 37.6655 36.2908 36.5972 35.3948 34.7191C34.3265 32.5135 34.2231 29.3948 35.6705 28.6883C36.3425 28.3609 36.98 28.6883 37.5486 28.964C38.1345 29.2569 38.548 29.4465 38.9788 29.2914C39.4612 29.1191 39.7369 28.6022 39.9092 28.292C41.1843 25.9314 41.5461 19.3321 40.1849 16.3167C39.9437 15.7998 39.5474 15.145 38.9788 15.0244C38.6342 14.9382 38.4102 14.5936 38.4963 14.249C38.5825 13.9044 38.9271 13.6804 39.2717 13.7665C40.1332 13.9733 40.8397 14.6453 41.3566 15.7998C42.9246 19.2631 42.4938 26.2416 41.0465 28.9296C40.8225 29.3431 40.3572 30.2046 39.4095 30.532C38.4274 30.8766 37.5831 30.4459 36.98 30.1357C36.7388 30.0151 36.3425 29.8256 36.2563 29.86C35.86 30.0496 35.636 32.2034 36.5837 34.1677C37.3246 35.7185 38.5997 36.6145 39.5474 37.0969C39.8575 37.252 39.9954 37.6483 39.8231 37.9584C39.6852 38.1652 39.4612 38.3031 39.22 38.3031Z" fill="#3D3D3C"/>
</g>
<g id="Group_8">
<path id="Vector_6" d="M36.5331 14.387C36.2574 14.387 36.0161 14.2147 35.9128 13.939C34.5171 9.78644 37.7392 6.56429 38.7903 6.03014C39.1005 5.85783 39.4968 5.99568 39.6691 6.30584C39.8414 6.61599 39.7035 7.01229 39.3934 7.18459C38.9281 7.42582 35.9645 9.9932 37.1534 13.5255C37.274 13.8701 37.0845 14.232 36.7398 14.3526C36.6709 14.3698 36.602 14.387 36.5331 14.387Z" fill="#3D3D3C"/>
</g>
<g id="Group_9">
<path id="Vector_7" d="M52.7129 16.9036L41.0649 16.9553C40.7031 16.9553 40.4102 16.6624 40.4102 16.3178C40.4102 15.9559 40.7031 15.663 41.0477 15.663L52.6957 15.6113C53.0575 15.6113 53.3504 15.9042 53.3504 16.2489C53.3677 16.6107 53.0747 16.9036 52.7129 16.9036Z" fill="#3D3D3C"/>
</g>
<g id="Group_10">
<path id="Vector_8" d="M52.7639 28.5501L41.116 28.6018C40.7541 28.6018 40.4612 28.3089 40.4612 27.9643C40.4612 27.6024 40.7541 27.3095 41.0987 27.3095L52.7467 27.2578C53.1085 27.2578 53.4015 27.5507 53.4015 27.8954C53.4187 28.2572 53.1258 28.5501 52.7639 28.5501Z" fill="#3D3D3C"/>
</g>
</g>
</g>
</g>
</g>
</g>
<defs>
<filter id="filter0_d_6167_3808" x="0" y="0" width="64" height="52.3008" filterUnits="userSpaceOnUse" color-interpolation-filters="sRGB">
<feFlood flood-opacity="0" result="BackgroundImageFix"/>
<feColorMatrix in="SourceAlpha" type="matrix" values="0 0 0 0 0 0 0 0 0 0 0 0 0 0 0 0 0 0 127 0" result="hardAlpha"/>
<feOffset dy="4"/>
<feGaussianBlur stdDeviation="2"/>
<feComposite in2="hardAlpha" operator="out"/>
<feColorMatrix type="matrix" values="0 0 0 0 0 0 0 0 0 0 0 0 0 0 0 0 0 0 0.25 0"/>
<feBlend mode="normal" in2="BackgroundImageFix" result="effect1_dropShadow_6167_3808"/>
<feBlend mode="normal" in="SourceGraphic" in2="effect1_dropShadow_6167_3808" result="shape"/>
</filter>
</defs>
</svg>
