<svg width="20" height="20" viewBox="0 0 20 20" fill="none" xmlns="http://www.w3.org/2000/svg">
<g id="material-symbols:settings-outline">
<path id="Vector" d="M7.70833 18.3337L7.375 15.667C7.19444 15.5975 7.02417 15.5142 6.86417 15.417C6.70417 15.3198 6.54806 15.2156 6.39583 15.1045L3.91667 16.1462L1.625 12.1878L3.77083 10.5628C3.75694 10.4656 3.75 10.3717 3.75 10.2812V9.71949C3.75 9.62894 3.75694 9.53505 3.77083 9.43783L1.625 7.81283L3.91667 3.85449L6.39583 4.89616C6.54861 4.78505 6.70833 4.68088 6.875 4.58366C7.04167 4.48644 7.20833 4.4031 7.375 4.33366L7.70833 1.66699H12.2917L12.625 4.33366C12.8056 4.4031 12.9758 4.48644 13.1358 4.58366C13.2958 4.68088 13.4519 4.78505 13.6042 4.89616L16.0833 3.85449L18.375 7.81283L16.2292 9.43783C16.2431 9.53505 16.25 9.62894 16.25 9.71949V10.2812C16.25 10.3717 16.2361 10.4656 16.2083 10.5628L18.3542 12.1878L16.0625 16.1462L13.6042 15.1045C13.4514 15.2156 13.2917 15.3198 13.125 15.417C12.9583 15.5142 12.7917 15.5975 12.625 15.667L12.2917 18.3337H7.70833ZM10.0417 12.917C10.8472 12.917 11.5347 12.6323 12.1042 12.0628C12.6736 11.4934 12.9583 10.8059 12.9583 10.0003C12.9583 9.19477 12.6736 8.50727 12.1042 7.93783C11.5347 7.36838 10.8472 7.08366 10.0417 7.08366C9.22222 7.08366 8.53111 7.36838 7.96833 7.93783C7.40556 8.50727 7.12444 9.19477 7.125 10.0003C7.125 10.8059 7.40611 11.4934 7.96833 12.0628C8.53056 12.6323 9.22167 12.917 10.0417 12.917ZM10.0417 11.2503C9.69444 11.2503 9.39917 11.1287 9.15583 10.8853C8.9125 10.642 8.79111 10.347 8.79167 10.0003C8.79167 9.6531 8.91333 9.35783 9.15667 9.11449C9.4 8.87116 9.695 8.74977 10.0417 8.75033C10.3889 8.75033 10.6842 8.87199 10.9275 9.11532C11.1708 9.35866 11.2922 9.65366 11.2917 10.0003C11.2917 10.3475 11.17 10.6428 10.9267 10.8862C10.6833 11.1295 10.3883 11.2509 10.0417 11.2503ZM9.16667 16.667H10.8125L11.1042 14.4587C11.5347 14.3475 11.9342 14.1842 12.3025 13.9687C12.6708 13.7531 13.0075 13.4928 13.3125 13.1878L15.375 14.042L16.1875 12.6253L14.3958 11.2712C14.4653 11.0767 14.5139 10.872 14.5417 10.657C14.5694 10.442 14.5833 10.2231 14.5833 10.0003C14.5833 9.7781 14.5694 9.55949 14.5417 9.34449C14.5139 9.12949 14.4653 8.92449 14.3958 8.72949L16.1875 7.37533L15.375 5.95866L13.3125 6.83366C13.0069 6.51421 12.6703 6.24699 12.3025 6.03199C11.9347 5.81699 11.5353 5.65366 11.1042 5.54199L10.8333 3.33366H9.1875L8.89583 5.54199C8.46528 5.6531 8.06611 5.81644 7.69833 6.03199C7.33056 6.24755 6.99361 6.50783 6.6875 6.81283L4.625 5.95866L3.8125 7.37533L5.60417 8.70866C5.53472 8.91699 5.48611 9.12533 5.45833 9.33366C5.43056 9.54199 5.41667 9.76421 5.41667 10.0003C5.41667 10.2225 5.43056 10.4378 5.45833 10.6462C5.48611 10.8545 5.53472 11.0628 5.60417 11.2712L3.8125 12.6253L4.625 14.042L6.6875 13.167C6.99306 13.4864 7.33 13.7539 7.69833 13.9695C8.06667 14.185 8.46583 14.3481 8.89583 14.4587L9.16667 16.667Z" fill="#7791CD"/>
</g>
</svg>
