<svg width="20" height="20" viewBox="0 0 20 20" fill="none" xmlns="http://www.w3.org/2000/svg">
<path d="M13.4917 1.66699H6.50835C3.47502 1.66699 1.66669 3.47533 1.66669 6.50866V13.4837C1.66669 16.5253 3.47502 18.3337 6.50835 18.3337H13.4834C16.5167 18.3337 18.325 16.5253 18.325 13.492V6.50866C18.3334 3.47533 16.525 1.66699 13.4917 1.66699ZM14.3834 8.30033L12.4584 10.7837C12.2167 11.092 11.875 11.292 11.4834 11.3337C11.0917 11.3837 10.7084 11.2753 10.4 11.0337L8.87502 9.83366C8.81669 9.78366 8.75002 9.78366 8.71669 9.79199C8.68335 9.79199 8.62502 9.80866 8.57502 9.87533L6.59169 12.4503C6.46669 12.6087 6.28335 12.692 6.10002 12.692C5.96669 12.692 5.83335 12.6503 5.71669 12.5587C5.44169 12.3503 5.39169 11.9587 5.60002 11.6837L7.58335 9.10866C7.82502 8.80033 8.16669 8.60033 8.55835 8.55033C8.94169 8.50033 9.33335 8.60866 9.64169 8.85033L11.1667 10.0503C11.225 10.1003 11.2834 10.1003 11.325 10.092C11.3584 10.092 11.4167 10.0753 11.4667 10.0087L13.3917 7.52533C13.6 7.25033 14 7.20033 14.2667 7.41699C14.5417 7.64199 14.5917 8.03366 14.3834 8.30033Z" fill="#7791CD"/>
</svg>
